<svg viewBox="0 0 486 674" version="1.1" xmlns="http://www.w3.org/2000/svg" xmlns:xlink="http://www.w3.org/1999/xlink" xml:space="preserve" xmlns:serif="http://www.serif.com/" style="fill-rule:evenodd;clip-rule:evenodd;stroke-linecap:round;stroke-linejoin:round;stroke-miterlimit:1.5;">
    <g transform="matrix(1,0,0,1,-34,-42)">
        <path d="M277,98L328,51L359,100L319,135C313.504,140.472 313.547,146.335 319.03,152.584L508,457C511.021,462.333 511.399,467.667 508,473L483,512L436,458L439,597C439.145,605.319 436.07,611.8 429,616L284,700C276.365,704.899 270.964,706.012 264,700L130,619C118.731,616.857 114.354,607.522 116,591L117,460L72,511L47,472C41.435,467.945 43.532,461.359 48,455L233,153C238.849,146.333 238.36,139.667 233,133L199,96L228,52L277,98Z" style="fill:rgb(235,235,235);stroke:black;stroke-width:14.67px;"/>
    </g>
    <g transform="matrix(1,0,0,1,-34,-42)">
        <path d="M254,424L298,427L306,435L325,589L230,589L254,424Z"/>
    </g>
</svg>
